# xmcd
#
# Track frame offsets:
# 150
# 37237
# 61132
# 92197
# 117366
# 146555
# 174257
# 208775
# 235852
# 265493
# 288819
#
# Disc length: 4275 seconds
#
# Revision: 0
# Processed by: cddbd v1.5.2PL0 Copyright (c) Steve Scherf et al.
# Submitted via: Audion 3.0.2 (http://www.panic.com/audion/)
#
DISCID=a210b10b
DTITLE=Cla - Cla Fav
DYEAR=1900
DGENRE=
TTITLE0=Cla 1
TTITLE1=Cla 2
TTITLE2=Cla 3
TTITLE3=Cla 4
TTITLE4=Cla 5
TTITLE5=Cla 6
TTITLE6=Cla 7
TTITLE7=Cla 8
TTITLE8=Cla 9
TTITLE9=Cla 10
TTITLE10=Cla 11
EXTD=
EXTT0=
EXTT1=
EXTT2=
EXTT3=
EXTT4=
EXTT5=
EXTT6=
EXTT7=
EXTT8=
EXTT9=
EXTT10=
PLAYORDER=
